<svg width="40" height="40" viewBox="0 0 40 40" fill="none" xmlns="http://www.w3.org/2000/svg">
<path d="M20 9.98534C14.458 9.98534 9.98534 14.458 9.98534 20C9.98534 25.542 14.458 30.0146 20 30.0146C25.542 30.0146 30.0146 25.542 30.0146 20C30.0146 14.458 25.542 9.98534 20 9.98534ZM20 26.5088C16.416 26.5088 13.4912 23.584 13.4912 20C13.4912 16.416 16.416 13.4912 20 13.4912C23.584 13.4912 26.5088 16.416 26.5088 20C26.5088 23.584 23.584 26.5088 20 26.5088ZM30.4248 7.2412C29.1308 7.2412 28.0859 8.28612 28.0859 9.58007C28.0859 10.874 29.1308 11.9189 30.4248 11.9189C31.7187 11.9189 32.7637 10.8789 32.7637 9.58007C32.764 9.27281 32.7038 8.9685 32.5864 8.68456C32.469 8.40063 32.2967 8.14264 32.0795 7.92538C31.8622 7.70812 31.6042 7.53585 31.3203 7.41845C31.0364 7.30105 30.732 7.24081 30.4248 7.2412V7.2412ZM39.5215 20C39.5215 17.3047 39.5459 14.6338 39.3945 11.9433C39.2432 8.81835 38.5303 6.04491 36.2451 3.75975C33.9551 1.46971 31.1865 0.761706 28.0615 0.610339C25.3662 0.458972 22.6953 0.483386 20.0049 0.483386C17.3096 0.483386 14.6387 0.458972 11.9482 0.610339C8.82323 0.761706 6.04979 1.4746 3.76464 3.75975C1.4746 6.04979 0.766589 8.81835 0.615222 11.9433C0.463855 14.6387 0.488269 17.3096 0.488269 20C0.488269 22.6904 0.463855 25.3662 0.615222 28.0566C0.766589 31.1816 1.47948 33.9551 3.76464 36.2402C6.05468 38.5303 8.82323 39.2383 11.9482 39.3896C14.6435 39.541 17.3144 39.5166 20.0049 39.5166C22.7002 39.5166 25.3711 39.541 28.0615 39.3896C31.1865 39.2383 33.9599 38.5254 36.2451 36.2402C38.5351 33.9502 39.2432 31.1816 39.3945 28.0566C39.5508 25.3662 39.5215 22.6953 39.5215 20V20ZM35.2246 31.5137C34.8682 32.4023 34.4385 33.0664 33.75 33.75C33.0615 34.4385 32.4023 34.8682 31.5137 35.2246C28.9453 36.2451 22.8467 36.0156 20 36.0156C17.1533 36.0156 11.0498 36.2451 8.48143 35.2295C7.59276 34.873 6.9287 34.4433 6.2451 33.7549C5.55663 33.0664 5.12694 32.4072 4.7705 31.5185C3.75487 28.9453 3.98436 22.8467 3.98436 20C3.98436 17.1533 3.75487 11.0498 4.7705 8.48143C5.12694 7.59276 5.55663 6.9287 6.2451 6.2451C6.93358 5.56151 7.59276 5.12694 8.48143 4.7705C11.0498 3.75487 17.1533 3.98436 20 3.98436C22.8467 3.98436 28.9502 3.75487 31.5185 4.7705C32.4072 5.12694 33.0713 5.55663 33.7549 6.2451C34.4433 6.93358 34.873 7.59276 35.2295 8.48143C36.2451 11.0498 36.0156 17.1533 36.0156 20C36.0156 22.8467 36.2451 28.9453 35.2246 31.5137Z" fill="white"/>
</svg>
