<svg width="36" height="36" viewBox="0 0 36 36" fill="none" xmlns="http://www.w3.org/2000/svg">
<path d="M33 0.5H2.99219C1.61719 0.5 0.5 1.63281 0.5 3.02344V32.9766C0.5 34.3672 1.61719 35.5 2.99219 35.5H33C34.375 35.5 35.5 34.3672 35.5 32.9766V3.02344C35.5 1.63281 34.375 0.5 33 0.5ZM11.0781 30.5H5.89062V13.7969H11.0859V30.5H11.0781ZM8.48437 11.5156C6.82031 11.5156 5.47656 10.1641 5.47656 8.50781C5.47656 6.85156 6.82031 5.5 8.48437 5.5C10.1406 5.5 11.4922 6.85156 11.4922 8.50781C11.4922 10.1719 10.1484 11.5156 8.48437 11.5156V11.5156ZM30.5234 30.5H25.3359V22.375C25.3359 20.4375 25.2969 17.9453 22.6406 17.9453C19.9375 17.9453 19.5234 20.0547 19.5234 22.2344V30.5H14.3359V13.7969H19.3125V16.0781H19.3828C20.0781 14.7656 21.7734 13.3828 24.2969 13.3828C29.5469 13.3828 30.5234 16.8437 30.5234 21.3437V30.5V30.5Z" fill="white"/>
</svg>
