<svg width="129" height="86" viewBox="0 0 129 86" fill="none" xmlns="http://www.w3.org/2000/svg">
<path d="M118.25 72.5624H80.625V18.8124C80.625 15.8562 83.0438 13.4374 86 13.4374H107.5C109.112 13.4374 110.725 14.2437 111.8 15.5874L127.925 36.2812C128.731 37.3562 129 38.4312 129 39.5062V61.8124C129 67.7249 124.162 72.5624 118.25 72.5624Z" fill="#FFC107"/>
<path d="M21.4999 72.5625H80.6249V10.75C80.6249 4.8375 75.7874 0 69.8749 0H10.7499V61.8125C10.7499 67.725 15.5874 72.5625 21.4999 72.5625Z" fill="#2B75E2"/>
<path d="M26.875 0H0V5.375H26.875V0Z" fill="#2B75E2"/>
<path d="M26.875 13.4374H0V18.8124H26.875V13.4374Z" fill="#2B75E2"/>
<path d="M26.875 26.8751H0V32.2501H26.875V26.8751Z" fill="#2B75E2"/>
<path d="M26.875 40.3125H0V45.6875H26.875V40.3125Z" fill="#2B75E2"/>
<path d="M53.7499 5.37494H10.7499V10.7499H53.7499V5.37494Z" fill="#79B8F1"/>
<path d="M42.9999 18.8126H10.7499V24.1876H42.9999V18.8126Z" fill="#79B8F1"/>
<path d="M32.2499 32.25H10.7499V37.625H32.2499V32.25Z" fill="#79B8F1"/>
<path d="M21.4999 45.6874H10.7499V51.0624H21.4999V45.6874Z" fill="#79B8F1"/>
<path d="M104.812 86.0001C112.234 86.0001 118.25 79.9839 118.25 72.5626C118.25 65.1412 112.234 59.1251 104.812 59.1251C97.3911 59.1251 91.3749 65.1412 91.3749 72.5626C91.3749 79.9839 97.3911 86.0001 104.812 86.0001Z" fill="#37474F"/>
<path d="M43.0001 86.0001C50.4214 86.0001 56.4376 79.9839 56.4376 72.5626C56.4376 65.1412 50.4214 59.1251 43.0001 59.1251C35.5788 59.1251 29.5626 65.1412 29.5626 72.5626C29.5626 79.9839 35.5788 86.0001 43.0001 86.0001Z" fill="#37474F"/>
<path d="M104.813 79.2812C108.523 79.2812 111.531 76.2731 111.531 72.5624C111.531 68.8518 108.523 65.8437 104.813 65.8437C101.102 65.8437 98.0939 68.8518 98.0939 72.5624C98.0939 76.2731 101.102 79.2812 104.813 79.2812Z" fill="#78909C"/>
<path d="M43 79.2812C46.7107 79.2812 49.7188 76.2731 49.7188 72.5624C49.7188 68.8518 46.7107 65.8437 43 65.8437C39.2893 65.8437 36.2812 68.8518 36.2812 72.5624C36.2812 76.2731 39.2893 79.2812 43 79.2812Z" fill="#78909C"/>
<path d="M118.25 45.6876H108.575C107.769 45.6876 107.231 45.4188 106.694 44.8813L102.931 41.1188C102.394 40.5813 101.856 40.3126 101.05 40.3126H91.375C89.7625 40.3126 88.6875 39.2376 88.6875 37.6251V21.5001C88.6875 19.8876 89.7625 18.8126 91.375 18.8126H106.156C106.962 18.8126 107.769 19.0813 108.306 19.8876L120.4 34.4001C120.669 34.9376 120.938 35.4751 120.938 36.0126V43.0001C120.938 44.6126 119.862 45.6876 118.25 45.6876Z" fill="#455A64"/>
</svg>
